<?xml version="1.0" encoding="UTF-8"?>
<svg xmlns="http://www.w3.org/2000/svg" id="Layer_1" data-name="Layer 1" viewBox="0 0 59.27 51.15">
  <defs>
    <style>
      .cls-1 {
        stroke: #fff;
      }

      .cls-1, .cls-2 {
        fill: none;
      }

      .cls-2, .cls-3, .cls-4 {
        isolation: isolate;
      }

      .cls-3 {
        letter-spacing: .02em;
      }

      .cls-3, .cls-4 {
        fill: #fff;
        font-family: MyriadPro-Semibold, 'Myriad Pro';
        font-size: 10px;
        font-weight: 600;
      }

      .cls-4 {
        letter-spacing: .03em;
      }
    </style>
  </defs>
  <g class="cls-2">
    <text class="cls-4" transform="translate(11.83 37.65)">
      <tspan x="0" y="0">B</tspan>
    </text>
    <text class="cls-4" transform="translate(17.54 37.65)">
      <tspan x="0" y="0">ook an</tspan>
    </text>
    <text class="cls-3" transform="translate(0 48.65)">
      <tspan x="0" y="0">A</tspan>
    </text>
    <text class="cls-4" transform="translate(6.33 48.65)">
      <tspan x="0" y="0">ppoi</tspan>
    </text>
    <text class="cls-3" transform="translate(26.54 48.65)">
      <tspan x="0" y="0">n</tspan>
    </text>
    <text class="cls-4" transform="translate(32.3 48.65)">
      <tspan x="0" y="0">tme</tspan>
    </text>
    <text class="cls-3" transform="translate(49.71 48.65)">
      <tspan x="0" y="0">n</tspan>
    </text>
    <text class="cls-4" transform="translate(55.47 48.65)">
      <tspan x="0" y="0">t</tspan>
    </text>
  </g>
  <g id="SVGRepo_iconCarrier" data-name="SVGRepo iconCarrier">
    <path class="cls-1" d="m22.32,0v8.91M36.57,0v8.91m-15.14,4.45h5.35m10.69,0h-5.35m-10.69,5.35h5.35m5.35,0h5.35M18.76,4.45h21.38c.98,0,1.78.8,1.78,1.78v17.82c0,.98-.8,1.78-1.78,1.78h-21.38c-.98,0-1.78-.8-1.78-1.78V6.24c0-.98.8-1.78,1.78-1.78h0Z"></path>
  </g>
</svg>
